# xmcd CD database file
#
# Track frame offsets:
#	183
#	26258
#	44408
#	67458
#	90458
#	119108
#	141908
#	160858
#	181408
#
# Disc length: 2732 seconds
#
# Revision: 5
# Processed by: cddbd v1.5.1PL2 Copyright (c) Steve Scherf et al.
# Submitted via: CDex 1.51
#
DISCID=810aaa09
DTITLE=Aretha Franklin - Aretha
DYEAR=1986
DGENRE=Pop
TTITLE0=Jimmy Lee
TTITLE1=I Knew You Were Waiting (For Me)
TTITLE2=Do You Still Remember
TTITLE3=Jumpin' Jack Flash
TTITLE4=Rock-A-Lott
TTITLE5=An Angel Cries
TTITLE6=He'll Come Along
TTITLE7=If You Need My Love Tonight
TTITLE8=Look To The Rainbow
EXTD=YEAR: 1986
EXTT0=
EXTT1=
EXTT2=
EXTT3=
EXTT4=
EXTT5=
EXTT6=
EXTT7=
EXTT8=
PLAYORDER=
